
<svg version="1.1" id="Layer_1" xmlns="http://www.w3.org/2000/svg" xmlns:xlink="http://www.w3.org/1999/xlink" x="0px" y="0px"
	 width="227px" height="81px" viewBox="0 0 227 81" style="enable-background:new 0 0 227 81;" xml:space="preserve">
<style type="text/css">
	.st0{fill:#333333;}
	.st1{fill:#92D12F;}
	.st2{fill:#969696;}
</style>

		<path class="st0" d="M2.2,38.9h4.2L20.4,0h7l13.9,38.9h4.2v4.8H30.4v-4.8H35l-3.4-9.7H16.1l-3.4,9.7h4.7v4.8H2.2V38.9z M30.1,24.2
			L24.7,9.1C24.1,7.3,24,5.7,24,5.7h-0.2c0,0-0.2,1.5-0.7,3.3l-5.4,15.2H30.1z"/>
		<path class="st0" d="M46,12.4h14.1V17h-4l6.6,18.3c0.5,1.4,0.7,2.9,0.7,2.9h0.2c0,0,0.2-1.5,0.7-2.9L70.9,17h-4v-4.6h14V17H77
			L66.8,43.8h-6.8L50,17h-4V12.4z"/>
		<path class="st0" d="M103.3,24.5h2v-1.2c0-5-2.9-6.7-6.7-6.7c-5,0-9,3-9,3l-2.4-4.3c0,0,4.6-3.7,11.9-3.7c8,0,12.2,4.2,12.2,12.1
			v14c0,0.9,0.5,1.4,1.4,1.4h3.2v4.6h-6.3c-2.8,0-3.9-1.4-3.9-3.4v-0.4c0-1.2,0.2-2,0.2-2h-0.1c0,0-2.7,6.6-10.4,6.6
			c-5.2,0-10.4-3-10.4-9.5C85,25.2,98.1,24.5,103.3,24.5z M96.8,39.9c5.3,0,8.6-5.5,8.6-10.2v-1.3h-1.5c-2.9,0-12.7,0.1-12.7,6.1
			C91.1,37.3,93.2,39.9,96.8,39.9z"/>
		<path class="st0" d="M135.8,11.7c7.1,0,9.7,5.3,9.7,5.3h0.1c0,0-0.2-1-0.2-2.4V4.6h-5.2V0h11.2v37.8c0,0.9,0.5,1.4,1.4,1.4h3.2
			v4.6h-6.3c-2.8,0-3.9-1.4-3.9-3.4v-0.4c0-1.1,0.2-1.7,0.2-1.7h-0.1c0,0-2.5,6.3-10.6,6.3c-8.4,0-13.7-6.7-13.7-16.4
			C121.6,18.1,127.4,11.7,135.8,11.7z M136.6,39.3c4.6,0,9.1-3.3,9.1-11.2c0-5.8-2.9-11.2-8.9-11.2c-5,0-9.1,4-9.1,11.2
			C127.7,34.9,131.4,39.3,136.6,39.3z"/>
		<path class="st1" d="M179.8,24.5h2v-1.2c0-5-2.9-6.7-6.7-6.7c-5,0-9,3-9,3l-2.4-4.3c0,0,4.6-3.7,11.9-3.7c8,0,12.2,4.2,12.2,12.1
			v14c0,0.9,0.5,1.4,1.4,1.4h3.2v4.6h-6.3c-2.8,0-3.9-1.4-3.9-3.4v-0.4c0-1.2,0.2-2,0.2-2h-0.1c0,0-2.7,6.6-10.4,6.6
			c-5.2,0-10.4-3-10.4-9.5C161.6,25.2,174.6,24.5,179.8,24.5z M173.3,39.9c5.3,0,8.6-5.5,8.6-10.2v-1.3h-1.5
			c-2.9,0-12.7,0.1-12.7,6.1C167.6,37.3,169.7,39.9,173.3,39.9z"/>
	
	<circle class="st1" cx="220.3" cy="20.5" r="6.2"/>
	<circle class="st1" cx="220.3" cy="38.3" r="6.2"/>
	
		<path class="st2" d="M19,64.8L17.4,66c-0.8-1.1-1.9-1.9-3-2.5c-1.2-0.6-2.5-0.8-3.9-0.8c-1.5,0-3,0.4-4.3,1.1
			c-1.3,0.7-2.3,1.7-3.1,3C2.4,68,2,69.4,2,71c0,2.4,0.8,4.3,2.4,5.9c1.6,1.6,3.7,2.4,6.1,2.4c2.7,0,5-1.1,6.8-3.2l1.5,1.2
			c-1,1.2-2.2,2.2-3.6,2.9c-1.4,0.7-3.1,1-4.8,1c-3.4,0-6.1-1.1-8-3.4C0.8,75.8,0,73.5,0,70.8c0-2.8,1-5.2,3-7.2
			c2-1.9,4.5-2.9,7.5-2.9c1.8,0,3.4,0.4,4.9,1.1C16.8,62.5,18,63.5,19,64.8z"/>
		<path class="st2" d="M42.8,61.2h1.9v17.5h7.5v1.9h-9.4V61.2z"/>
		<path class="st2" d="M83.2,61.2l9,19.4h-2.1l-3.1-6.4h-8.4l-3,6.4h-2.2l9.2-19.4H83.2z M83,65.3l-3.3,7h6.6L83,65.3z"/>
		<path class="st2" d="M113.2,77l1.6-1c1.2,2.1,2.5,3.2,4,3.2c0.6,0,1.3-0.2,1.8-0.5c0.6-0.3,1-0.7,1.3-1.2c0.3-0.5,0.4-1,0.4-1.6
			c0-0.7-0.2-1.3-0.7-1.9c-0.6-0.9-1.7-1.9-3.3-3.1c-1.6-1.2-2.6-2.1-3-2.6c-0.7-0.9-1-1.9-1-3c0-0.8,0.2-1.6,0.6-2.3s1-1.2,1.7-1.6
			c0.7-0.4,1.5-0.6,2.4-0.6c0.9,0,1.8,0.2,2.6,0.7c0.8,0.5,1.6,1.3,2.5,2.5l-1.6,1.2c-0.7-1-1.4-1.6-1.9-1.9
			c-0.5-0.3-1.1-0.5-1.7-0.5c-0.8,0-1.4,0.2-1.9,0.7c-0.5,0.5-0.7,1.1-0.7,1.8c0,0.4,0.1,0.8,0.3,1.2s0.5,0.8,1,1.3
			c0.3,0.2,1.1,0.9,2.5,1.9c1.7,1.2,2.8,2.3,3.5,3.3c0.6,1,0.9,1.9,0.9,2.9c0,1.4-0.5,2.6-1.6,3.7c-1.1,1-2.4,1.6-3.9,1.6
			c-1.2,0-2.2-0.3-3.2-0.9C114.9,79.5,114,78.5,113.2,77z"/>
		<path class="st2" d="M146.7,77l1.6-1c1.2,2.1,2.5,3.2,4,3.2c0.6,0,1.3-0.2,1.8-0.5c0.6-0.3,1-0.7,1.3-1.2c0.3-0.5,0.4-1,0.4-1.6
			c0-0.7-0.2-1.3-0.7-1.9c-0.6-0.9-1.7-1.9-3.3-3.1c-1.6-1.2-2.6-2.1-3-2.6c-0.7-0.9-1-1.9-1-3c0-0.8,0.2-1.6,0.6-2.3s1-1.2,1.7-1.6
			c0.7-0.4,1.5-0.6,2.4-0.6c0.9,0,1.8,0.2,2.6,0.7c0.8,0.5,1.6,1.3,2.5,2.5l-1.6,1.2c-0.7-1-1.4-1.6-1.9-1.9
			c-0.5-0.3-1.1-0.5-1.7-0.5c-0.8,0-1.4,0.2-1.9,0.7c-0.5,0.5-0.7,1.1-0.7,1.8c0,0.4,0.1,0.8,0.3,1.2s0.5,0.8,1,1.3
			c0.3,0.2,1.1,0.9,2.5,1.9c1.7,1.2,2.8,2.3,3.5,3.3c0.6,1,0.9,1.9,0.9,2.9c0,1.4-0.5,2.6-1.6,3.7c-1.1,1-2.4,1.6-3.9,1.6
			c-1.2,0-2.2-0.3-3.2-0.9C148.3,79.5,147.5,78.5,146.7,77z"/>
		<path class="st2" d="M181.8,61.2h1.9v19.4h-1.9V61.2z"/>
		<path class="st2" d="M226.2,64.8l-1.5,1.2c-0.8-1.1-1.9-1.9-3-2.5c-1.2-0.6-2.5-0.8-3.9-0.8c-1.5,0-3,0.4-4.3,1.1
			c-1.3,0.7-2.3,1.7-3.1,3c-0.7,1.3-1.1,2.7-1.1,4.2c0,2.4,0.8,4.3,2.4,5.9c1.6,1.6,3.7,2.4,6.1,2.4c2.7,0,5-1.1,6.8-3.2l1.5,1.2
			c-1,1.2-2.2,2.2-3.6,2.9c-1.4,0.7-3.1,1-4.8,1c-3.4,0-6.1-1.1-8-3.4c-1.6-1.9-2.5-4.2-2.5-6.9c0-2.8,1-5.2,3-7.2
			c2-1.9,4.5-2.9,7.5-2.9c1.8,0,3.4,0.4,4.9,1.1C224.1,62.5,225.3,63.5,226.2,64.8z"/>
	
</svg>
