<svg width="1920" height="361" viewBox="0 0 1920 361" fill="none" xmlns="http://www.w3.org/2000/svg">
<path d="M0 30.5247C128.135 -6.24652 405.5 -46.5834 733.5 148.985C1061.5 344.553 1346.9 168.779 1530 159.391C1749 148.163 1838 248.59 1920 361H0V30.5247Z" fill="white" fill-opacity="0.14"/>
<path d="M0 60.3001C128.135 26.8419 484.691 14.89 718.823 163.185C919.199 290.101 1196.32 272.073 1465.32 191.605C1633.32 141.35 1805.82 239.882 1920 361H0V60.3001Z" fill="white" fill-opacity="0.3"/>
<path d="M0 92.8346C128.135 62.9965 487.176 67.4605 753.5 208.38C1074 377.967 1298.01 219.334 1503 219.334C1718.49 219.334 1784 262.391 1920 361H0V92.8346Z" fill="white" fill-opacity="0.46"/>
<path d="M0 136.128C128.135 111.107 446.213 94.5108 693.446 228.294C1002.49 395.523 1275.37 265.103 1438.99 254.24C1648.89 240.304 1799.62 300.612 1920 361H0V136.128Z" fill="white"/>
</svg>
